{
	"asset":{
		"generator":"Khronos glTF Blender I/O v3.5.30",
		"version":"2.0"
	},
	"scene":0,
	"scenes":[
		{
			"name":"Scene",
			"nodes":[
				0,
				1
			]
		}
	],
	"nodes":[
		{
			"mesh":0,
			"name":"Roundcube.001"
		},
		{
			"mesh":1,
			"name":"Roundcube.002",
			"scale":[
				0.5950959324836731,
				0.5950959324836731,
				0.5950959324836731
			],
			"translation":[
				-0.4964599609375,
				0,
				-0.5346491932868958
			]
		}
	],
	"materials":[
		{
			"doubleSided":true,
			"name":"Material.001",
			"pbrMetallicRoughness":{
				"baseColorTexture":{
					"index":0
				},
				"metallicFactor":0,
				"roughnessFactor":0.5
			}
		}
	],
	"meshes":[
		{
			"name":"Roundcube.001",
			"primitives":[
				{
					"attributes":{
						"POSITION":0,
						"TEXCOORD_0":1,
						"NORMAL":2
					},
					"indices":3,
					"material":0
				}
			]
		},
		{
			"name":"Roundcube.002",
			"primitives":[
				{
					"attributes":{
						"POSITION":4,
						"TEXCOORD_0":5,
						"NORMAL":6
					},
					"indices":7,
					"material":0
				}
			]
		}
	],
	"textures":[
		{
			"sampler":0,
			"source":0
		}
	],
	"images":[
		{
			"bufferView":4,
			"mimeType":"image/png",
			"name":"new_texture"
		}
	],
	"accessors":[
		{
			"bufferView":0,
			"componentType":5126,
			"count":6028,
			"max":[
				1.9104701280593872,
				1.1491339206695557,
				1.191582202911377
			],
			"min":[
				-1.7035459280014038,
				-0.8422646522521973,
				-0.9120789170265198
			],
			"type":"VEC3"
		},
		{
			"bufferView":1,
			"componentType":5126,
			"count":6028,
			"type":"VEC2"
		},
		{
			"bufferView":2,
			"componentType":5126,
			"count":6028,
			"type":"VEC3"
		},
		{
			"bufferView":3,
			"componentType":5123,
			"count":33744,
			"type":"SCALAR"
		},
		{
			"bufferView":5,
			"componentType":5126,
			"count":194,
			"max":[
				1.3243098258972168,
				1.251214861869812,
				0.9976462125778198
			],
			"min":[
				-0.9008617997169495,
				-0.9275735020637512,
				-0.9956137537956238
			],
			"type":"VEC3"
		},
		{
			"bufferView":6,
			"componentType":5126,
			"count":194,
			"type":"VEC2"
		},
		{
			"bufferView":7,
			"componentType":5126,
			"count":194,
			"type":"VEC3"
		},
		{
			"bufferView":8,
			"componentType":5123,
			"count":930,
			"type":"SCALAR"
		}
	],
	"bufferViews":[
		{
			"buffer":0,
			"byteLength":72336,
			"byteOffset":0,
			"target":34962
		},
		{
			"buffer":0,
			"byteLength":48224,
			"byteOffset":72336,
			"target":34962
		},
		{
			"buffer":0,
			"byteLength":72336,
			"byteOffset":120560,
			"target":34962
		},
		{
			"buffer":0,
			"byteLength":67488,
			"byteOffset":192896,
			"target":34963
		},
		{
			"buffer":0,
			"byteLength":340573,
			"byteOffset":260384
		},
		{
			"buffer":0,
			"byteLength":2328,
			"byteOffset":600960,
			"target":34962
		},
		{
			"buffer":0,
			"byteLength":1552,
			"byteOffset":603288,
			"target":34962
		},
		{
			"buffer":0,
			"byteLength":2328,
			"byteOffset":604840,
			"target":34962
		},
		{
			"buffer":0,
			"byteLength":1860,
			"byteOffset":607168,
			"target":34963
		}
	],
	"samplers":[
		{
			"magFilter":9728,
			"minFilter":9984
		}
	],
	"buffers":[
		{
			"byteLength":609028,
			"uri":"data:application/octet-stream;base64,"
		}
	]
}
